<?xml version="1.0" encoding="utf-8" ?>
<svg xmlns="http://www.w3.org/2000/svg" xmlns:xlink="http://www.w3.org/1999/xlink" width="90" height="90">
	<defs>
		<linearGradient id="gradient_0" gradientUnits="userSpaceOnUse" x1="41.658169" y1="15.317741" x2="42.397804" y2="43.352272">
			<stop offset="0" stop-color="#EC6F36"/>
			<stop offset="1" stop-color="#F4C736"/>
		</linearGradient>
	</defs>
	<path fill="url(#gradient_0)" d="M33.4824 15.6322C38.8406 13.2726 44.7903 13.3301 50.2226 15.3643C55.6408 17.1649 60.1856 21.3705 62.727 26.442C64.6264 30.2614 65.3895 34.5459 64.9257 38.7863C65.6287 39.0258 65.9825 38.8997 66.7057 38.7759C67.4798 37.6332 69.6442 35.7984 70.9441 35.3312L71.5073 35.4246C71.8521 36.7032 70.8582 38.1965 70.2289 39.2892C68.3549 42.5434 61.297 47.5814 60.9474 48.4704C60.864 48.6824 60.7866 48.8911 60.7215 49.1099C61.0672 49.6481 61.1479 49.8352 61.8083 49.972C62.7829 50.1738 64.0774 49.9273 64.959 50.3883C65.2842 50.5583 65.2679 50.6516 65.387 50.9839C64.2101 51.5015 62.9367 51.6046 61.7861 52.1251C62.9536 55.1682 63.742 58.1133 64.0196 61.3692C64.3341 62.8887 64.2717 64.4767 64.2786 66.0221C63.3613 65.8648 62.8936 65.3154 62.2148 64.7369L61.326 65.5882C60.6385 65.1859 60.0331 64.9006 59.2563 64.7162L59.0223 64.8467C59.7393 68.5722 66.4651 67.9559 61.4628 75.6735C60.9478 75.7822 60.8871 75.9222 60.609 76.3624C60.5418 76.4688 60.5189 76.5487 60.5191 76.6727C55.8071 76.8663 51.1064 76.6809 46.3957 76.6577C41.3238 76.6326 36.3746 76.7545 31.2996 76.4379C30.0724 76.6432 28.8147 76.8899 27.5716 76.9526C26.7445 76.9943 25.5222 77.0879 24.9008 76.5259C25.5464 75.279 31.2305 73.6022 32.8235 72.4978C34.785 71.1378 35.5863 69.3561 36.0004 67.0622C35.5075 65.4185 34.8162 63.8086 34.203 62.2054C29.064 55.9 35.0394 53.7106 34.284 50.1708C31.3935 49.5528 23.9831 44.9717 20.7885 43.5277C18.4779 42.4832 15.918 42.0752 13.5189 41.277C12.7558 41.0231 12.4474 40.7883 12.0965 40.0887L12.3019 39.7072C13.6937 38.8141 17.2967 39.1488 18.9173 39.3551C19.1796 38.1259 19.2501 36.8965 19.3287 35.645C19.6744 31.2663 20.9337 26.8793 23.5482 23.3024C23.1906 22.7441 22.2262 23.1288 21.7373 22.5432C22.544 21.148 23.6862 22.3954 24.7238 21.7678C27.9307 19.8281 29.3162 17.0624 33.4824 15.6322ZM50.46 46.1713C50.8071 45.8282 50.8882 45.1996 51.0088 44.7387C48.1732 43.1226 49.2724 41.1845 47.0901 39.8492C46.446 39.7957 46.3796 39.8132 45.8764 40.2187C45.9044 40.4842 45.8863 41.0138 45.9841 41.2411C46.4076 42.225 48.5966 44.7861 49.4482 45.462C49.7669 45.7149 50.1622 45.9032 50.46 46.1713ZM53.8908 50.1362L52.4742 49.4208L52.0417 49.6152L51.8645 50.4851L51.2728 50.3415L50.596 50.9584L50.3708 49.8794C50.7809 49.1393 50.879 48.8149 50.6669 48.0071C50.1164 47.4587 49.575 47.3039 48.836 47.1111L47.8546 47.6436C45.5852 49.3072 43.1472 50.6981 40.8509 52.311C39.9964 51.8429 39.0404 51.5655 38.1206 51.2537C37.0778 50.941 35.3307 50.069 34.284 50.1708C35.0394 53.7106 29.064 55.9 34.203 62.2054C34.8162 63.8086 35.5075 65.4185 36.0004 67.0622C35.5863 69.3561 34.785 71.1378 32.8235 72.4978C31.2305 73.6022 25.5464 75.279 24.9008 76.5259C25.5222 77.0879 26.7445 76.9943 27.5716 76.9526C28.8147 76.8899 30.0724 76.6432 31.2996 76.4379C36.3746 76.7545 41.3238 76.6326 46.3957 76.6577C51.1064 76.6809 55.8071 76.8663 60.5191 76.6727C60.5189 76.5487 60.5418 76.4688 60.609 76.3624C60.8871 75.9222 60.9478 75.7822 61.4628 75.6735C66.4651 67.9559 59.7393 68.5722 59.0223 64.8467L59.2563 64.7162C60.0331 64.9006 60.6385 65.1859 61.326 65.5882L62.2148 64.7369C62.8936 65.3154 63.3613 65.8648 64.2786 66.0221C64.2717 64.4767 64.3341 62.8887 64.0196 61.3692C63.742 58.1133 62.9536 55.1682 61.7861 52.1251C62.9367 51.6046 64.2101 51.5015 65.387 50.9839C65.2679 50.6516 65.2842 50.5583 64.959 50.3883C64.0774 49.9273 62.7829 50.1738 61.8083 49.972C61.1479 49.8352 61.0672 49.6481 60.7215 49.1099L60.4171 49.0874C59.9357 48.3657 59.2487 47.8353 58.4853 47.4398C57.5659 46.9635 56.2456 46.3146 55.2241 46.641L55.1243 47.163L55.4861 50.0478C54.9751 50.0705 54.3897 50.0436 53.8908 50.1362Z"/>
	<path fill="#676766" d="M51.9782 44.3722L53.1589 44.526C53.853 45.4549 53.69 48.7618 53.8908 50.1362L52.4742 49.4208L52.0417 49.6152L51.8645 50.4851L51.2728 50.3415L50.596 50.9584L50.3708 49.8794C50.7809 49.1393 50.879 48.8149 50.6669 48.0071C50.1164 47.4587 49.575 47.3039 48.836 47.1111C49.5398 46.8258 50.3424 47.1716 50.9457 46.672C50.7602 46.5231 50.6137 46.3511 50.46 46.1713C50.8071 45.8282 50.8882 45.1996 51.0088 44.7387C51.1087 45.4442 51.0403 45.72 51.5716 46.2169C52.0299 45.9952 52.0153 45.8171 52.1815 45.3612L51.9782 44.3722Z"/>
	<defs>
		<linearGradient id="gradient_1" gradientUnits="userSpaceOnUse" x1="49.486431" y1="78.567444" x2="42.172852" y2="49.33078">
			<stop offset="0" stop-color="#B4B4B6"/>
			<stop offset="1" stop-color="#DAD7D5"/>
		</linearGradient>
	</defs>
	<path fill="url(#gradient_1)" d="M55.1243 47.163L55.2241 46.641C56.2456 46.3146 57.5659 46.9635 58.4853 47.4398C59.2487 47.8353 59.9357 48.3657 60.4171 49.0874L60.7215 49.1099C61.0672 49.6481 61.1479 49.8352 61.8083 49.972C62.7829 50.1738 64.0774 49.9273 64.959 50.3883C65.2842 50.5583 65.2679 50.6516 65.387 50.9839C64.2101 51.5015 62.9367 51.6046 61.7861 52.1251C62.9536 55.1682 63.742 58.1133 64.0196 61.3692C64.3341 62.8887 64.2717 64.4767 64.2786 66.0221C63.3613 65.8648 62.8936 65.3154 62.2148 64.7369L61.326 65.5882C60.6385 65.1859 60.0331 64.9006 59.2563 64.7162L59.0223 64.8467C59.7393 68.5722 66.4651 67.9559 61.4628 75.6735C60.9478 75.7822 60.8871 75.9222 60.609 76.3624C60.5418 76.4688 60.5189 76.5487 60.5191 76.6727C55.8071 76.8663 51.1064 76.6809 46.3957 76.6577C41.3238 76.6326 36.3746 76.7545 31.2996 76.4379C30.0724 76.6432 28.8147 76.8899 27.5716 76.9526C26.7445 76.9943 25.5222 77.0879 24.9008 76.5259C25.5464 75.279 31.2305 73.6022 32.8235 72.4978C34.785 71.1378 35.5863 69.3561 36.0004 67.0622C35.5075 65.4185 34.8162 63.8086 34.203 62.2054C29.064 55.9 35.0394 53.7106 34.284 50.1708C35.3307 50.069 37.0778 50.941 38.1206 51.2537C39.0404 51.5655 39.9964 51.8429 40.8509 52.311C43.1472 50.6981 45.5852 49.3072 47.8546 47.6436L48.836 47.1111C49.575 47.3039 50.1164 47.4587 50.6669 48.0071C50.879 48.8149 50.7809 49.1393 50.3708 49.8794L50.596 50.9584L51.2728 50.3415L51.8645 50.4851L52.0417 49.6152L52.4742 49.4208L53.8908 50.1362C54.3897 50.0436 54.9751 50.0705 55.4861 50.0478L55.1243 47.163ZM33.0393 74.9692C33.2246 75.0709 33.4503 75.1241 33.6583 75.1505C35.0297 75.3247 36.9875 74.3009 38.0384 73.4807C39.6281 72.24 40.9006 70.5447 41.1369 68.4962C41.291 67.1607 41.0472 65.9242 40.1822 64.8685C39.4029 63.9174 38.807 63.695 37.6 63.5854C37.6003 63.6043 37.6004 63.6232 37.6009 63.642C37.6042 63.7581 37.6156 63.8733 37.6263 63.9889C37.8874 66.8053 40.3943 68.1036 37.8837 71.2003C36.5187 72.8838 34.4871 73.5216 33.0393 74.9692ZM49.3298 75.3625C50.8126 74.7136 51.8397 74.0084 52.9675 72.84L49.4967 73.0122C48.4416 73.6436 47.3656 74.2044 46.6162 75.2072L46.596 75.6369C47.0477 75.9284 47.6264 75.8102 48.1241 75.7016C48.5307 75.6129 48.9328 75.4868 49.3298 75.3625ZM53.7461 70.0358C53.81 69.3162 53.8312 69.1249 53.4938 68.4907C52.5075 67.7804 51.1209 67.9117 49.9529 67.9227C49.8963 68.6881 49.8397 68.9431 50.1946 69.6205C51.0807 70.2428 52.6745 70.0207 53.7461 70.0358Z"/>
	<path fill="#C5C2C1" d="M55.1243 47.163L55.2241 46.641C56.2456 46.3146 57.5659 46.9635 58.4853 47.4398C59.2487 47.8353 59.9357 48.3657 60.4171 49.0874L60.7215 49.1099C61.0672 49.6481 61.1479 49.8352 61.8083 49.972C62.7829 50.1738 64.0774 49.9273 64.959 50.3883C65.2842 50.5583 65.2679 50.6516 65.387 50.9839C64.2101 51.5015 62.9367 51.6046 61.7861 52.1251C62.9536 55.1682 63.742 58.1133 64.0196 61.3692C64.3341 62.8887 64.2717 64.4767 64.2786 66.0221C63.3613 65.8648 62.8936 65.3154 62.2148 64.7369L61.326 65.5882C60.6385 65.1859 60.0331 64.9006 59.2563 64.7162L59.0223 64.8467C58.2479 64.8392 57.4824 64.6141 56.7439 64.3976C56.0869 63.6753 56.1327 63.1447 55.9533 62.2084L55.4291 63.3358C55.302 64.1773 55.3437 64.5302 54.6199 65.0532C53.8985 65.5744 52.8835 65.5839 52.039 65.4332C51.4809 65.3337 48.5255 64.82 48.2281 64.7294C46.9532 64.4192 44.5165 64.0656 43.5636 63.1882C43.455 63.0882 43.4806 63.0413 43.4756 62.8995C43.9392 62.2451 44.3275 61.5532 45.0498 61.1595L45.1138 61.125L45.2435 60.1332C45.4427 60.1056 45.6807 59.9606 45.8674 59.8776C46.5914 58.8319 46.8894 57.1656 47.098 55.9186L47.1062 55.7685C47.1614 55.7411 47.157 55.7453 47.2023 55.7167C47.2201 55.7055 47.2373 55.6935 47.2551 55.6824C47.9303 55.2609 48.0554 54.7058 48.2825 53.9739C47.7729 50.9895 49.83 51.8412 50.3708 49.8794L50.596 50.9584L51.2728 50.3415L51.8645 50.4851L52.0417 49.6152L52.4742 49.4208L53.8908 50.1362C54.3897 50.0436 54.9751 50.0705 55.4861 50.0478L55.1243 47.163Z"/>
	<path fill="#313A44" d="M55.1243 47.163L55.2241 46.641C56.2456 46.3146 57.5659 46.9635 58.4853 47.4398C59.2487 47.8353 59.9357 48.3657 60.4171 49.0874L60.7215 49.1099C61.0672 49.6481 61.1479 49.8352 61.8083 49.972C62.7829 50.1738 64.0774 49.9273 64.959 50.3883C65.2842 50.5583 65.2679 50.6516 65.387 50.9839C64.2101 51.5015 62.9367 51.6046 61.7861 52.1251L61.416 52.2042C61.2432 53.0739 62.5966 56.8516 63.0355 57.7653C63.0283 58.4241 63.1713 58.9204 62.6709 59.4057C62.0538 60.0043 60.7452 60.1488 59.9095 60.124C58.2883 60.076 56.4272 59.8945 54.9741 59.1407C53.7647 58.5361 53.0299 57.5821 52.3133 56.4808C52.4354 54.3428 52.2696 52.5789 51.8645 50.4851L52.0417 49.6152L52.4742 49.4208L53.8908 50.1362C54.3897 50.0436 54.9751 50.0705 55.4861 50.0478L55.1243 47.163Z"/>
	<path fill="#444C51" d="M51.8645 50.4851L52.0417 49.6152L52.4742 49.4208L53.8908 50.1362C54.3897 50.0436 54.9751 50.0705 55.4861 50.0478C54.3944 50.6016 53.2163 50.2237 52.3232 50.8048C52.4746 51.4068 52.4762 51.5498 52.9682 51.9685C53.859 51.9026 54.9683 51.4961 55.7837 51.9127C56.0896 52.3432 56.267 52.5162 56.311 53.0541C55.5921 53.5379 54.8854 53.5 54.3871 54.2363C54.3063 55.1404 54.1842 56.0025 54.4811 56.8815C54.8375 57.2054 54.9433 57.3653 55.4631 57.3328C55.9981 57.2993 56.3396 57.0549 56.8317 57.3266L56.8026 57.6085C55.913 58.0901 55.4059 58.1978 54.9741 59.1407C53.7647 58.5361 53.0299 57.5821 52.3133 56.4808C52.4354 54.3428 52.2696 52.5789 51.8645 50.4851Z"/>
	<path fill="#70797E" d="M60.7215 49.1099C61.0672 49.6481 61.1479 49.8352 61.8083 49.972C62.7829 50.1738 64.0774 49.9273 64.959 50.3883C65.2842 50.5583 65.2679 50.6516 65.387 50.9839C64.2101 51.5015 62.9367 51.6046 61.7861 52.1251L61.416 52.2042C61.2432 53.0739 62.5966 56.8516 63.0355 57.7653C60.5297 54.8632 58.7206 55.584 57.9176 54.6803C58.6571 53.858 59.8217 53.4498 60.8068 52.9919C60.504 51.7433 60.5016 50.3692 60.4171 49.0874L60.7215 49.1099Z"/>
	<path fill="#444C51" d="M48.2825 53.9739C47.7729 50.9895 49.83 51.8412 50.3708 49.8794L50.596 50.9584L51.2728 50.3415L51.8645 50.4851C52.2696 52.5789 52.4354 54.3428 52.3133 56.4808L51.6557 56.8651C51.5538 57.3572 51.4851 57.82 51.4662 58.323L50.7364 58.447L50.4035 58.2213C49.4134 57.8303 48.4463 56.9302 47.5986 56.282L47.098 55.9186L47.1062 55.7685C47.1614 55.7411 47.157 55.7453 47.2023 55.7167C47.2201 55.7055 47.2373 55.6935 47.2551 55.6824C47.9303 55.2609 48.0554 54.7058 48.2825 53.9739Z"/>
	<path fill="#70797E" d="M50.596 50.9584L51.2728 50.3415L51.8645 50.4851C52.2696 52.5789 52.4354 54.3428 52.3133 56.4808L51.6557 56.8651C51.5538 57.3572 51.4851 57.82 51.4662 58.323L50.7364 58.447C50.8265 58.3569 50.8928 58.2559 50.959 58.148C51.738 56.8796 50.9621 52.4289 50.596 50.9584Z"/>
	<path fill="#676766" d="M48.2825 53.9739C49.0169 54.0926 49.1797 54.0766 49.6672 54.6431C49.9039 56.0717 49.5948 56.9638 50.4035 58.2213C49.4134 57.8303 48.4463 56.9302 47.5986 56.282L47.098 55.9186L47.1062 55.7685C47.1614 55.7411 47.157 55.7453 47.2023 55.7167C47.2201 55.7055 47.2373 55.6935 47.2551 55.6824C47.9303 55.2609 48.0554 54.7058 48.2825 53.9739Z"/>
	<path fill="#ACABA6" d="M47.5986 56.282C48.4463 56.9302 49.4134 57.8303 50.4035 58.2213L50.7364 58.447L51.4662 58.323L51.5986 58.5486C51.533 59.4985 51.5407 60.5282 51.2091 61.4289C50.58 60.6402 49.7369 59.3756 48.8587 58.8852C48.4557 58.6601 48.3562 58.6717 47.9206 58.793L47.6768 59.3653L47.3461 59.0945C47.5972 58.0973 47.6963 57.3127 47.5986 56.282Z"/>
	<path fill="#676766" d="M47.6768 59.3653L47.9206 58.793C48.3562 58.6717 48.4557 58.6601 48.8587 58.8852C49.7369 59.3756 50.58 60.6402 51.2091 61.4289C51.3151 61.9614 51.3748 62.4019 51.2926 62.9427C51.2607 63.1528 51.0549 63.2329 50.8876 63.355C50.8592 63.3486 50.8306 63.3429 50.8024 63.3357C49.6326 63.0375 48.2885 60.3682 47.6768 59.3653Z"/>
	<path fill="#676766" d="M59.7362 63.0371C58.8512 62.9145 58.1559 62.7418 57.3375 62.3602L57.226 62.0443C57.2955 61.9779 57.3672 61.915 57.4464 61.86C58.6394 61.032 62.1458 61.1848 63.5589 61.406C62.9051 62.0846 62.399 62.4854 61.5117 62.8523C60.942 62.8896 60.2805 62.8744 59.7362 63.0371Z"/>
	<path fill="#ACABA6" d="M59.7362 63.0371C60.2805 62.8744 60.942 62.8896 61.5117 62.8523C61.4881 63.6698 61.744 64.0868 62.2148 64.7369L61.326 65.5882C60.6385 65.1859 60.0331 64.9006 59.2563 64.7162C59.6367 64.1913 59.67 63.6641 59.7362 63.0371Z"/>
	<path fill="#676766" d="M52.892 60.4305C53.6448 60.4774 54.6196 60.4557 55.1487 61.0715C55.4496 61.4217 55.7064 61.8193 55.9533 62.2084L55.4291 63.3358C54.8758 63.0781 54.2733 62.8168 53.7717 62.468C53.14 62.0289 53.0231 61.1368 52.892 60.4305Z"/>
	<defs>
		<linearGradient id="gradient_2" gradientUnits="userSpaceOnUse" x1="50.878563" y1="50.194492" x2="35.262661" y2="55.242393">
			<stop offset="0" stop-color="#222A2F"/>
			<stop offset="1" stop-color="#4E5D70"/>
		</linearGradient>
	</defs>
	<path fill="url(#gradient_2)" d="M48.836 47.1111C49.575 47.3039 50.1164 47.4587 50.6669 48.0071C50.879 48.8149 50.7809 49.1393 50.3708 49.8794C49.83 51.8412 47.7729 50.9895 48.2825 53.9739C48.0554 54.7058 47.9303 55.2609 47.2551 55.6824C47.2373 55.6935 47.2201 55.7055 47.2023 55.7167C47.157 55.7453 47.1614 55.7411 47.1062 55.7685C46.895 55.5815 46.6766 55.4027 46.4515 55.2328C44.4353 53.7259 39.5711 56.5974 37.4421 57.3548C36.5089 57.6868 35.4764 57.8277 34.5005 57.9734C34.977 56.9943 35.4385 56.155 36.1508 55.324C36.2927 53.5349 36.9778 52.5761 38.1206 51.2537C39.0404 51.5655 39.9964 51.8429 40.8509 52.311C43.1472 50.6981 45.5852 49.3072 47.8546 47.6436L48.836 47.1111Z"/>
	<path fill="#C5C2C1" d="M38.1206 51.2537C39.0404 51.5655 39.9964 51.8429 40.8509 52.311C39.3042 53.3051 37.7521 54.4295 36.1508 55.324C36.2927 53.5349 36.9778 52.5761 38.1206 51.2537Z"/>
	<path fill="#C5C2C1" d="M34.203 62.2054C34.213 62.192 34.2231 62.1787 34.2328 62.1651C34.7115 61.503 34.9034 60.6542 35.1362 59.8808C36.0167 60.156 36.4634 61.0665 36.8755 61.853C37.1816 62.4373 37.5917 62.9273 37.6 63.5854C37.6003 63.6043 37.6004 63.6232 37.6009 63.642C37.6042 63.7581 37.6156 63.8733 37.6263 63.9889C37.8874 66.8053 40.3943 68.1036 37.8837 71.2003C36.5187 72.8838 34.4871 73.5216 33.0393 74.9692C32.9134 75.4691 32.9341 75.8247 32.4625 76.1084C32.1325 76.307 31.6749 76.364 31.2996 76.4379C30.0724 76.6432 28.8147 76.8899 27.5716 76.9526C26.7445 76.9943 25.5222 77.0879 24.9008 76.5259C25.5464 75.279 31.2305 73.6022 32.8235 72.4978C34.785 71.1378 35.5863 69.3561 36.0004 67.0622C35.5075 65.4185 34.8162 63.8086 34.203 62.2054Z"/>
	<path fill="#444C51" d="M42.8028 63.8585C42.8993 62.6915 42.7988 60.8542 43.5673 59.939C44.328 59.7212 44.502 59.8513 45.2435 60.1332L45.1138 61.125L45.0498 61.1595C44.3275 61.5532 43.9392 62.2451 43.4756 62.8995C43.4806 63.0413 43.455 63.0882 43.5636 63.1882C44.5165 64.0656 46.9532 64.4192 48.2281 64.7294C47.1945 64.9568 46.1063 65.7465 45.1875 66.2797C44.3487 65.5409 43.5831 64.6617 42.8028 63.8585Z"/>
	<path fill="#A9CE42" d="M34.284 50.1708C31.3935 49.5528 23.9831 44.9717 20.7885 43.5277C18.4779 42.4832 15.918 42.0752 13.5189 41.277C12.7558 41.0231 12.4474 40.7883 12.0965 40.0887L12.3019 39.7072C13.6937 38.8141 17.2967 39.1488 18.9173 39.3551C21.3517 40.5809 24.2307 41.1224 26.8078 42.0301C29.3498 42.9255 32.0885 44.33 34.6851 44.9153C36.9263 45.7372 39.1919 46.4699 41.5393 46.9288C43.3109 47.3355 45.9292 46.7618 47.4463 47.4406C47.5867 47.5034 47.7213 47.5667 47.8546 47.6436C45.5852 49.3072 43.1472 50.6981 40.8509 52.311C39.9964 51.8429 39.0404 51.5655 38.1206 51.2537C37.0778 50.941 35.3307 50.069 34.284 50.1708Z"/>
	<path fill="#313A44" d="M43.0383 29.5932C43.9729 29.7739 45.1584 29.8573 45.8774 30.5305C46.2656 31.1191 46.37 31.6288 46.234 32.3272C45.8882 34.1037 44.9566 35.7385 44.6489 37.5699L46.0714 36.7501C45.8608 37.9132 45.7061 39.0377 45.6558 40.2194L45.8764 40.2187C45.9044 40.4842 45.8863 41.0138 45.9841 41.2411C46.4076 42.225 48.5966 44.7861 49.4482 45.462C49.7669 45.7149 50.1622 45.9032 50.46 46.1713C50.6137 46.3511 50.7602 46.5231 50.9457 46.672C50.3424 47.1716 49.5398 46.8258 48.836 47.1111L47.8546 47.6436C47.7213 47.5667 47.5867 47.5034 47.4463 47.4406C45.9292 46.7618 43.3109 47.3355 41.5393 46.9288C39.1919 46.4699 36.9263 45.7372 34.6851 44.9153C34.6926 44.9021 34.6995 44.8887 34.7074 44.8758C35.1495 44.1512 35.4078 44.1179 36.2041 43.9389C37.5786 44.2809 37.712 43.8539 38.9006 43.6507C38.9275 43.6461 38.9545 43.6421 38.9814 43.6378C39.7626 43.2718 41.0517 42.8297 41.4663 42.0392C42.1365 40.7611 40.7865 38.4188 40.3749 37.089C38.7766 36.4255 37.9655 35.2694 37.0883 33.8452C36.7143 33.3718 35.9931 33.0052 35.4863 32.6705C36.2688 32.0628 37.085 31.2809 38.0984 31.1434L38.761 30.8818C40.4716 30.7149 41.6215 31.9615 43.098 32.5374C43.2174 31.7459 42.7483 31.1027 42.3073 30.5022L43.0383 29.5932Z"/>
	<path fill="#E5AE4B" d="M43.0383 29.5932C43.9729 29.7739 45.1584 29.8573 45.8774 30.5305C46.2656 31.1191 46.37 31.6288 46.234 32.3272C45.8882 34.1037 44.9566 35.7385 44.6489 37.5699L44.3471 39.4983C44.2044 40.073 43.9905 40.6042 43.7654 41.1506L43.394 41.1884C42.2032 37.5656 40.2703 34.3616 38.761 30.8818C40.4716 30.7149 41.6215 31.9615 43.098 32.5374C43.2174 31.7459 42.7483 31.1027 42.3073 30.5022L43.0383 29.5932Z"/>
	<path fill="#EAECDD" d="M48.8267 45.6757C47.8789 44.3606 46.4502 43.4288 45.6142 42.0328C45.2901 41.4917 45.5169 40.7905 45.6558 40.2194L45.8764 40.2187C45.9044 40.4842 45.8863 41.0138 45.9841 41.2411C46.4076 42.225 48.5966 44.7861 49.4482 45.462C49.7669 45.7149 50.1622 45.9032 50.46 46.1713C50.6137 46.3511 50.7602 46.5231 50.9457 46.672C50.3424 47.1716 49.5398 46.8258 48.836 47.1111L47.8546 47.6436C47.7213 47.5667 47.5867 47.5034 47.4463 47.4406C45.9292 46.7618 43.3109 47.3355 41.5393 46.9288C39.1919 46.4699 36.9263 45.7372 34.6851 44.9153C34.6926 44.9021 34.6995 44.8887 34.7074 44.8758C35.1495 44.1512 35.4078 44.1179 36.2041 43.9389C37.5786 44.2809 37.712 43.8539 38.9006 43.6507C38.9275 43.6461 38.9545 43.6421 38.9814 43.6378L38.8003 44.3705C39.5208 45.1528 40.5374 45.2467 41.5509 45.4706C43.9985 45.7747 46.3705 45.7868 48.8267 45.6757Z"/>
	<path fill="#E5AE4B" d="M35.4863 32.6705C36.2688 32.0628 37.085 31.2809 38.0984 31.1434C39.0553 33.018 39.9947 35.0044 40.3749 37.089C38.7766 36.4255 37.9655 35.2694 37.0883 33.8452C36.7143 33.3718 35.9931 33.0052 35.4863 32.6705Z"/>
	<path fill="#A9CE42" d="M66.7057 38.7759C67.4798 37.6332 69.6442 35.7984 70.9441 35.3312L71.5073 35.4246C71.8521 36.7032 70.8582 38.1965 70.2289 39.2892C68.3549 42.5434 61.297 47.5814 60.9474 48.4704C60.864 48.6824 60.7866 48.8911 60.7215 49.1099L60.4171 49.0874C59.9357 48.3657 59.2487 47.8353 58.4853 47.4398C57.5659 46.9635 56.2456 46.3146 55.2241 46.641L55.1243 47.163L55.4861 50.0478C54.9751 50.0705 54.3897 50.0436 53.8908 50.1362C53.69 48.7618 53.853 45.4549 53.1589 44.526L51.9782 44.3722L52.8442 43.9667C53.7116 43.7052 54.7124 43.7712 55.6121 43.6116C58.36 43.1243 63.2794 41.1015 64.9257 38.7863C65.6287 39.0258 65.9825 38.8997 66.7057 38.7759Z"/>
	<path fill="#F2EBAC" d="M52.8442 43.9667C53.7116 43.7052 54.7124 43.7712 55.6121 43.6116C58.36 43.1243 63.2794 41.1015 64.9257 38.7863C65.6287 39.0258 65.9825 38.8997 66.7057 38.7759C66.4128 39.8551 63.9524 41.394 62.9596 41.9637C61.1486 43.003 55.5833 44.8155 54.961 46.4951L55.1243 47.163L55.4861 50.0478C54.9751 50.0705 54.3897 50.0436 53.8908 50.1362C53.69 48.7618 53.853 45.4549 53.1589 44.526L51.9782 44.3722L52.8442 43.9667Z"/>
	<path fill="#2F302B" d="M35.88 28.0793C35.0674 27.3656 33.896 26.7094 33.3027 25.8073L33.6197 25.5523C34.5996 25.6209 35.6065 26.2237 36.488 26.6366C38.7448 24.7291 38.6944 23.5586 41.85 22.1801C41.0809 23.5054 40.063 24.7324 39.1488 25.9626C40.9041 25.2297 42.3423 24.7146 44.2673 24.7864C44.6341 25.5289 44.4623 26.4239 45.0543 27.0551L44.3552 27.484C44.2193 28.1804 44.8098 28.1512 44.3982 28.7915C44.0907 28.831 43.4447 28.8154 43.2634 29.0523C43.1213 29.2379 43.0279 29.3496 43.0383 29.5932L42.3073 30.5022C42.7483 31.1027 43.2174 31.7459 43.098 32.5374C41.6215 31.9615 40.4716 30.7149 38.761 30.8818L38.0984 31.1434C37.085 31.2809 36.2688 32.0628 35.4863 32.6705C34.3301 33.7729 33.3999 34.9564 32.4525 36.2339C32.3422 35.7292 32.2954 35.2519 32.3464 34.7353C32.5649 32.5236 34.0018 31.4123 35.6011 30.0918C33.4432 30.1882 31.3241 30.3 29.1864 30.6285C31.5267 28.8286 32.9174 28.2528 35.88 28.0793Z"/>
	<path fill="#E57835" d="M44.2673 24.7864C44.6341 25.5289 44.4623 26.4239 45.0543 27.0551L44.3552 27.484C44.2193 28.1804 44.8098 28.1512 44.3982 28.7915C44.0907 28.831 43.4447 28.8154 43.2634 29.0523C43.1213 29.2379 43.0279 29.3496 43.0383 29.5932L42.3073 30.5022C41.4483 29.9291 40.3066 29.7479 39.829 28.8351C40.4835 26.9785 43.0697 26.3921 44.2329 24.8335C44.2445 24.8179 44.2558 24.8021 44.2673 24.7864Z"/>
	<path fill="#F2EBAC" d="M46.7867 32.7102C46.8121 32.4944 46.8366 32.2582 46.9161 32.0543C47.1398 31.4806 47.3107 31.418 47.8514 31.1901C49.1079 31.1818 50.6074 32.0879 51.7469 32.6101L52.2457 32.7532C52.4053 33.2891 52.3491 33.5854 52.0623 34.0836C51.9788 34.2287 51.8389 34.3425 51.7056 34.4399C50.5948 36.0416 49.114 37.7785 48.5172 39.646C50.2963 38.571 51.9633 37.4784 53.9566 36.8366L54.3166 36.9538C53.6662 38.0175 50.4655 39.9089 50.6415 40.9628C52.4405 41.0624 54.5819 39.6711 56.2027 40.1167C55.5903 41.2896 53.567 42.0499 52.37 42.4256C51.9651 42.5526 51.9427 42.574 51.6953 42.9125C52.02 43.5492 52.2281 43.6267 52.8442 43.9667L51.9782 44.3722L52.1815 45.3612C52.0153 45.8171 52.0299 45.9952 51.5716 46.2169C51.0403 45.72 51.1087 45.4442 51.0088 44.7387C48.1732 43.1226 49.2724 41.1845 47.0901 39.8492C46.446 39.7957 46.3796 39.8132 45.8764 40.2187L45.6558 40.2194C45.7061 39.0377 45.8608 37.9132 46.0714 36.7501C46.2284 35.3777 46.4802 34.0566 46.7867 32.7102Z"/>
	<path fill="#E5AE4B" d="M46.7867 32.7102C46.8121 32.4944 46.8366 32.2582 46.9161 32.0543C47.1398 31.4806 47.3107 31.418 47.8514 31.1901C49.1079 31.1818 50.6074 32.0879 51.7469 32.6101L52.2457 32.7532C52.4053 33.2891 52.3491 33.5854 52.0623 34.0836C51.9788 34.2287 51.8389 34.3425 51.7056 34.4399C49.6071 33.4634 49.0164 37.2629 47.3662 37.6388C46.1859 36.4062 47.7295 35.287 47.7384 33.8764C47.7393 33.7433 47.7389 33.6124 47.7279 33.4796C47.4191 32.9582 47.3592 32.9086 46.7867 32.7102Z"/>
	<path fill="#F2EBAC" d="M35.4863 32.6705C35.9931 33.0052 36.7143 33.3718 37.0883 33.8452C37.9655 35.2694 38.7766 36.4255 40.3749 37.089C40.7865 38.4188 42.1365 40.7611 41.4663 42.0392C41.0517 42.8297 39.7626 43.2718 38.9814 43.6378C38.9545 43.6421 38.9275 43.6461 38.9006 43.6507C37.712 43.8539 37.5786 44.2809 36.2041 43.9389L36.2092 43.7664L36.4139 43.2118C35.5741 41.4254 32.6931 42.1395 31.5113 40.6036L31.8377 39.8099C33.3637 40.2371 35.3071 41.0112 36.8837 40.8272L37.0859 40.5695C35.9203 39.1475 34.256 38.1763 32.9527 36.8628C32.77 36.7564 32.58 36.4131 32.4525 36.2339C33.3999 34.9564 34.3301 33.7729 35.4863 32.6705Z"/>
	<path fill="#E5AE4B" d="M35.4863 32.6705C35.9931 33.0052 36.7143 33.3718 37.0883 33.8452L36.2913 34.2404C36.1716 34.7708 36.4308 35.2782 36.7059 35.7172C37.1615 36.444 38.6049 37.8538 38.5958 38.6528C36.6392 39.1354 34.9126 36.0018 32.9527 36.8628C32.77 36.7564 32.58 36.4131 32.4525 36.2339C33.3999 34.9564 34.3301 33.7729 35.4863 32.6705Z"/>
	<path fill="#E57835" d="M33.4824 15.6322C38.8406 13.2726 44.7903 13.3301 50.2226 15.3643C49.7504 15.5945 49.382 15.6416 48.8661 15.6662C49.0523 16.2142 49.6194 16.4618 50.0912 16.7864C49.8366 17.2276 49.3596 17.3093 48.8793 17.4392C46.8382 17.9916 38.3407 17.7247 36.1913 17.1664C35.7875 16.7006 35.266 15.7329 34.6937 15.6532L34.2623 15.999C33.9991 15.8928 33.7123 15.8 33.4824 15.6322Z"/>
	<path fill="#2F302B" d="M45.0543 27.0551C45.5608 27.4287 46.1199 27.9478 46.7839 27.9051C47.4757 27.5827 47.8674 27.2638 48.6321 27.5487C49.4606 27.8573 50.7752 28.3341 51.3345 29.0325C50.6942 29.4256 50.2084 29.3921 49.8631 30.0978C50.3453 31.1912 51.7728 31.2185 51.7469 32.6101C50.6074 32.0879 49.1079 31.1818 47.8514 31.1901C47.3107 31.418 47.1398 31.4806 46.9161 32.0543C46.8366 32.2582 46.8121 32.4944 46.7867 32.7102C46.4802 34.0566 46.2284 35.3777 46.0714 36.7501L44.6489 37.5699C44.9566 35.7385 45.8882 34.1037 46.234 32.3272C46.37 31.6288 46.2656 31.1191 45.8774 30.5305C45.1584 29.8573 43.9729 29.7739 43.0383 29.5932C43.0279 29.3496 43.1213 29.2379 43.2634 29.0523C43.4447 28.8154 44.0907 28.831 44.3982 28.7915C44.8098 28.1512 44.2193 28.1804 44.3552 27.484L45.0543 27.0551Z"/>
	<path fill="#F2EBAC" d="M19.3287 35.645L19.5317 38.5156C22.8909 39.3084 26.2532 40.1557 29.4696 41.4264C31.5046 42.2347 34.0376 43.5859 36.2092 43.7664L36.2041 43.9389C35.4078 44.1179 35.1495 44.1512 34.7074 44.8758C34.6995 44.8887 34.6926 44.9021 34.6851 44.9153C32.0885 44.33 29.3498 42.9255 26.8078 42.0301C24.2307 41.1224 21.3517 40.5809 18.9173 39.3551C19.1796 38.1259 19.2501 36.8965 19.3287 35.645Z"/>
	<path fill="#E5AE4B" d="M29.4696 41.4264C30.3144 41.2927 31.2662 41.4905 32.1126 41.5865C32.0981 41.5844 32.0836 41.5826 32.0691 41.5802C31.2702 41.4512 29.9512 40.4653 29.4861 39.809L29.8246 40.1453L29.6949 39.6411C30.503 39.4171 31.0515 39.5638 31.8377 39.8099L31.5113 40.6036C32.6931 42.1395 35.5741 41.4254 36.4139 43.2118L36.2092 43.7664C34.0376 43.5859 31.5046 42.2347 29.4696 41.4264Z"/>
	<path fill="#C5C2C1" d="M62.2148 64.7369C62.8936 65.3154 63.3613 65.8648 64.2786 66.0221C66.6282 67.1685 68.7847 68.7231 69.6639 71.2921C69.8079 71.718 69.9426 72.147 70.0681 72.5787C69.0405 74.2217 69.1678 75.4005 68.7574 76.1791C68.6832 76.3199 68.1379 76.5146 67.9901 76.5492C65.5419 77.1228 62.9722 76.3314 60.5191 76.6727C60.5189 76.5487 60.5418 76.4688 60.609 76.3624C60.8871 75.9222 60.9478 75.7822 61.4628 75.6735C61.4785 75.6775 61.4941 75.6819 61.51 75.6855C61.819 75.7558 62.1222 75.837 62.442 75.8384C63.4546 75.8429 64.845 74.8123 65.5411 74.1168C66.0586 73.5997 66.37 72.9854 66.3595 72.2429C66.3257 69.8442 62.9483 67.1748 61.326 65.5882L62.2148 64.7369Z"/>
</svg>
