<?xml version="1.0" encoding="UTF-8"?> <svg xmlns="http://www.w3.org/2000/svg" xmlns:xlink="http://www.w3.org/1999/xlink" id="Layer_1" data-name="Layer 1" width="568" height="568" viewBox="0 0 568 568"><defs><style>.cls-1{fill:none;}.cls-2,.cls-4{fill:#fff;}.cls-3{clip-path:url(#clip-path);}.cls-4{fill-rule:evenodd;}</style><clipPath id="clip-path"><circle class="cls-1" cx="283.5" cy="283.5" r="171.5"></circle></clipPath></defs><title>Definition_Veteran-owned business-white</title><path class="cls-2" d="M283.7,24.15c7.38,0,14.87.32,22.26,1A259.84,259.84,0,0,1,284.3,543.85c-7.38,0-14.87-.32-22.26-1A259.84,259.84,0,0,1,283.7,24.15h0m0-6c-136.64,0-252.82,104.73-264.58,243.38C6.71,407.82,115.24,536.47,261.53,548.88q11.46,1,22.77,1c136.64,0,252.82-104.73,264.58-243.38C561.29,160.18,452.76,31.53,306.47,19.12q-11.46-1-22.77-1Z"></path><path class="cls-2" d="M284,6A278.08,278.08,0,0,1,392.21,540.16,278.08,278.08,0,0,1,175.79,27.84,276.35,276.35,0,0,1,284,6m0-6C127.15,0,0,127.15,0,284S127.15,568,284,568,568,440.85,568,284,440.85,0,284,0Z"></path><path class="cls-2" d="M82.09,239.84,45.67,246l1.67-7.56L59.2,236.5l7.31-.88-6-3.79L50.32,225,52,217.42l30.42,21Z"></path><path class="cls-2" d="M86,221.77,54.39,210.52,60,194.7,66.34,197,63,206.45l6.32,2.25,3-8.31,6.32,2.25-3,8.31,6.32,2.25,3.57-10,6.32,2.25Z"></path><path class="cls-2" d="M96.35,195.51,72.27,183.66l-3.68,7.5-6-2.95,10.34-21,6,2.94-3.68,7.49,24.07,11.84Z"></path><path class="cls-2" d="M105.22,178.47,77,160.31l9.1-14.11,5.63,3.63L86.3,158.3l5.64,3.64,4.77-7.42,5.64,3.64-4.77,7.41,5.63,3.63,5.77-8.95,5.63,3.63Z"></path><path class="cls-2" d="M128.4,146.7l-14.17-3-2.07,2.49,9.84,8.19-4.29,5.15L91.94,138.08l8.47-10.17c7.65-9.19,21.34.69,17.23,10.08l15.62,2.88ZM107.15,142l3.79-4.54c2.91-3.5-2.86-8.3-5.77-4.81l-3.78,4.54Z"></path><path class="cls-2" d="M120.51,105.35l.52-.47,33.84,16.17-5.58,5.09-3.44-1.75-8.21,7.48,1.46,3.56-5.62,5.12Zm19.27,16.07-8.13-4.4,3.55,8.57Z"></path><path class="cls-2" d="M163.3,115.22,157.74,119,138.63,90.55l1.48-1,25,6.89L154.58,80.73l5.6-3.77,19.08,28.37-1.48,1-24.66-6.25Z"></path><path class="cls-2" d="M174.36,85.54l15.24-7.68,2.81,5.57-15.25,7.68Z"></path><path class="cls-2" d="M207.11,55c21.87-7.36,32.9,25.4,11,32.76S185.24,62.37,207.11,55Zm2.2,6.53c-12.71,4.29-6.1,23.93,6.61,19.65S222,57.25,209.31,61.53Z"></path><path class="cls-2" d="M249.37,80,231.23,47.88l7.48-1,9,16.08L252,45.45l.33,0L261,61.19l4.44-17.86,7.48-1-9.07,35.61-1.21.16-8.06-13.93-4.06,15.69Z"></path><path class="cls-2" d="M286.84,76.48l-6.7-.3,1.5-34.2,1.78.07,16.05,20.43.83-18.93,6.75.29L305.55,78l-1.78-.07L287.64,58.25Z"></path><path class="cls-2" d="M312,78.32l5.8-33,16.54,2.9-1.16,6.61-9.93-1.74-1.16,6.6,8.68,1.53-1.16,6.6L321,66.27l-1.16,6.6,10.48,1.85-1.16,6.6Z"></path><path class="cls-2" d="M343.83,85.34l-9.52-3,10.05-32,9.53,3C375.18,60.06,365.13,92,343.83,85.34Zm4.92-26.57-6,19.19,3.14,1c12.43,3.91,18.47-15.28,6-19.19Z"></path><path class="cls-2" d="M392.66,68.55l11.57,6.5c5.19,2.92,6.33,8.45,3.31,13.54-1.33,2.16-3.39,4-5.94,4.24a8.13,8.13,0,0,1-.26,7.55,10,10,0,0,1-13.57,3.94l-11.57-6.5Zm-7.28,26.73,3.51,2,1.68.94a3.34,3.34,0,0,0,4.6-1.29,3.3,3.3,0,0,0-1.32-4.56l-5.19-2.92ZM392,83.59l3.51,2,1.68,1a3.39,3.39,0,0,0,3.31-5.89l-5.19-2.92Z"></path><path class="cls-2" d="M407.4,102.49l13.28-17.36L426,89.21l-13.26,17.31c-4.28,5.59,4.36,12.2,8.64,6.62l13.26-17.32,5.28,4.05-13.28,17.35C417,129.89,397.7,115.15,407.4,102.49Z"></path><path class="cls-2" d="M430.19,123.86a15,15,0,0,0,4.89,8.65c1.49,1.29,3.68,1.49,4.84.06s.83-3.09,0-4.88c-2.36-5.07-3.79-10.27.18-14.26a9.84,9.84,0,0,1,13.93-.55,20.07,20.07,0,0,1,4.92,6.89l-5.17,4a15,15,0,0,0-3.86-5.83,3.31,3.31,0,0,0-5,.31c-1.2,1.46-.63,3.21.27,5,2.33,5,3.4,10.34-.38,14.13-3.94,4-9.68,4.25-14.36.05a21,21,0,0,1-5.78-9.21Z"></path><path class="cls-2" d="M440.88,148.27l25.72-21.51,4.3,5.15-25.72,21.5Z"></path><path class="cls-2" d="M453.3,164l-3.72-5.58,28.5-19,1,1.48-7,25,15.77-10.51,3.74,5.62-28.46,19-1-1.49,6.36-24.63Z"></path><path class="cls-2" d="M466.69,185.46l30.1-14.78,7.4,15.07-6,2.95-4.44-9-6,3,3.89,7.91-6,3-3.88-7.91-6,3,4.69,9.56-6,3Z"></path><path class="cls-2" d="M484.83,202.27a15.11,15.11,0,0,0,.71,9.91c.8,1.8,2.69,2.92,4.35,2.12s2.07-2.43,2.05-4.42c0-5.59,1-10.91,6.27-12.8A9.83,9.83,0,0,1,511,202.54a19.92,19.92,0,0,1,1.49,8.34l-6.37,1.39a15.24,15.24,0,0,0-1-6.92,3.31,3.31,0,0,0-4.65-1.87c-1.71.81-1.95,2.64-1.92,4.67,0,5.55-1.36,10.8-6.39,12.6-5.26,1.88-10.57-.3-13-6.1a21.07,21.07,0,0,1-1.28-10.8Z"></path><path class="cls-2" d="M492.91,225.89a15.11,15.11,0,0,0-.45,9.92c.59,1.89,2.34,3.21,4.08,2.62s2.33-2.18,2.55-4.16c.68-5.55,2.23-10.72,7.71-12a9.83,9.83,0,0,1,12.1,6.91,19.88,19.88,0,0,1,.51,8.45l-6.49.64a15.23,15.23,0,0,0-.18-7,3.32,3.32,0,0,0-4.4-2.4c-1.79.61-2.24,2.4-2.44,4.42-.7,5.5-2.61,10.57-7.81,11.78-5.44,1.26-10.47-1.52-12.21-7.57a21,21,0,0,1,0-10.87Z"></path><path class="cls-2" d="M501.76,281.27c-.08-7.69,11.46-7.81,11.54-.12C513.38,289,501.84,289,501.76,281.27Z"></path><path class="cls-2" d="M486.18,326.84l36.39-6.37L520.94,328l-11.85,2-7.3.92,6.06,3.75,10.19,6.8-1.62,7.57-30.56-20.78Z"></path><path class="cls-2" d="M482.4,344.91,514.06,356l-5.54,15.85-6.33-2.21,3.33-9.52-6.33-2.21-2.91,8.32L490,364l2.9-8.32-6.33-2.21L483,363.51l-6.33-2.21Z"></path><path class="cls-2" d="M472.2,371.24l24.15,11.7,3.63-7.52,6,2.91-10.2,21.06-6-2.9,3.64-7.52-24.15-11.69Z"></path><path class="cls-2" d="M463.43,388.33l28.3,18-9,14.16-5.66-3.59,5.41-8.51-5.67-3.6-4.72,7.44-5.66-3.6,4.73-7.44-5.66-3.6-5.72,9-5.65-3.6Z"></path><path class="cls-2" d="M440.45,420.24l14.17,2.91,2.06-2.49-9.89-8.14,4.26-5.18,25.89,21.3-8.4,10.22c-7.59,9.23-21.34-.56-17.29-10l-15.63-2.78Zm21.26,4.56L458,429.36c-2.89,3.51,2.9,8.28,5.79,4.77l3.76-4.57Z"></path><path class="cls-2" d="M448.57,461.55l-.52.48-33.93-16,5.55-5.12,3.45,1.73,8.17-7.53-1.48-3.55,5.58-5.15ZM429.2,445.6l8.16,4.34-3.6-8.54Z"></path><path class="cls-2" d="M405.72,451.94l5.54-3.77,19.28,28.29-1.47,1L404,470.72l10.67,15.66-5.58,3.8-19.25-28.26,1.47-1L416,467Z"></path><path class="cls-2" d="M394.85,481.68l-15.2,7.77-2.84-5.55,15.2-7.77Z"></path><path class="cls-2" d="M362.3,512.41c-21.82,7.5-33.06-25.19-11.24-32.69S384.12,504.91,362.3,512.41Zm-2.24-6.52c12.68-4.36,5.94-24-6.74-19.6S347.37,510.25,360.06,505.89Z"></path><path class="cls-2" d="M319.87,487.66l18.33,32-7.48,1-9.05-16-4.18,17.54-.33,0-8.82-15.72L304,524.44l-7.48,1,8.85-35.66,1.21-.17,8.14,13.88,4-15.7Z"></path><path class="cls-2" d="M282.41,491.42l6.7.25-1.3,34.22-1.78-.07-16.17-20.33-.72,18.94-6.75-.26,1.3-34.17,1.78.07,16.25,19.58Z"></path><path class="cls-2" d="M257.24,489.73l-5.6,33.06L235.09,520l1.11-6.61,10,1.68,1.12-6.61-8.7-1.47,1.12-6.61,8.7,1.47,1.11-6.62L239,493.45l1.12-6.62Z"></path><path class="cls-2" d="M225.39,482.9l9.55,2.94-9.87,32-9.55-2.94C194.19,508.37,204.06,476.33,225.39,482.9Zm-4.76,26.6,5.92-19.23-3.13-1C211,485.47,205,504.7,217.49,508.53Z"></path><path class="cls-2" d="M176.65,500,165,493.55c-5.21-2.88-6.38-8.41-3.39-13.51,1.31-2.17,3.36-4,5.91-4.29a8.13,8.13,0,0,1,.22-7.55,10,10,0,0,1,13.54-4l11.61,6.44Zm.62-15.05L173.74,483l-1.68-.94a3.15,3.15,0,0,0-4.35,1.46,3.1,3.1,0,0,0,1.07,4.45l5.21,2.89Zm6.5-11.73-3.53-2-1.68-.93a3.34,3.34,0,0,0-4.59,1.32,3.3,3.3,0,0,0,1.34,4.55l5.21,2.88Z"></path><path class="cls-2" d="M161.73,466.15l-13.18,17.43-5.35-4,13.15-17.4c4.25-5.61-4.43-12.17-8.67-6.56L134.52,473l-5.31-4,13.18-17.43C152,438.81,171.35,453.43,161.73,466.15Z"></path><path class="cls-2" d="M138.79,444.9a15.07,15.07,0,0,0-4.94-8.62c-1.5-1.28-3.7-1.47-4.85,0s-.8,3.09.07,4.87c2.4,5.06,3.86,10.26-.09,14.27a9.82,9.82,0,0,1-13.92.63,19.68,19.68,0,0,1-5-6.86l5.14-4a15.26,15.26,0,0,0,3.89,5.81,3.32,3.32,0,0,0,5-.34c1.18-1.46.6-3.22-.31-5-2.36-5-3.46-10.32.3-14.13,3.91-4,9.65-4.31,14.36-.14a21.13,21.13,0,0,1,5.84,9.18Z"></path><path class="cls-2" d="M128,420.58l-25.6,21.67-4.33-5.12,25.6-21.67Z"></path><path class="cls-2" d="M115.44,404.87l3.75,5.56L90.81,429.57l-1-1.48,6.87-25L81,413.64,77.19,408l28.34-19.11,1,1.47-6.21,24.67Z"></path><path class="cls-2" d="M101.92,383.52l-30,15-7.49-15,6-3,4.5,9,6-3L77,378.61l6-3,3.94,7.88,6-3L88.18,371l6-3Z"></path><path class="cls-2" d="M83.68,366.83a15,15,0,0,0-.77-9.91c-.8-1.8-2.7-2.91-4.36-2.1s-2,2.44-2,4.43c0,5.6-.91,10.92-6.19,12.85a9.84,9.84,0,0,1-12.86-5.4,19.91,19.91,0,0,1-1.54-8.32L62.3,357a15.21,15.21,0,0,0,1,6.92A3.33,3.33,0,0,0,68,365.71c1.69-.82,1.92-2.65,1.88-4.68,0-5.55,1.3-10.81,6.32-12.65,5.25-1.91,10.57.24,13,6a21.12,21.12,0,0,1,1.34,10.8Z"></path><path class="cls-2" d="M75.47,343.27a15.13,15.13,0,0,0,.38-9.93c-.6-1.88-2.36-3.2-4.09-2.59s-2.32,2.19-2.53,4.17c-.65,5.56-2.16,10.74-7.63,12S51,345.49,49.45,340.12a20,20,0,0,1-.57-8.44l6.49-.68a15.22,15.22,0,0,0,.23,7A3.32,3.32,0,0,0,60,340.35c1.78-.62,2.22-2.41,2.41-4.43.66-5.51,2.54-10.59,7.74-11.83,5.42-1.29,10.47,1.45,12.25,7.49a21,21,0,0,1,.09,10.87Z"></path><path class="cls-2" d="M66.25,284.9c0,7.69-11.52,7.72-11.54,0C54.69,277.05,66.23,277.21,66.25,284.9Z"></path><path class="cls-2" d="M283.79,93v6h0c5.25,0,10.58.23,15.85.67A185,185,0,0,1,284.22,469c-5.26,0-10.59-.23-15.86-.67A185,185,0,0,1,283.78,99V93m0,0c-98.17,0-181.64,75.25-190.09,174.86C84.78,373,162.75,465.39,267.86,474.31q8.24.69,16.36.69c98.17,0,181.64-75.25,190.09-174.86C483.22,195,405.25,102.61,300.14,93.69Q291.9,93,283.78,93Z"></path><path class="cls-2" d="M284,115a169,169,0,1,1-119.5,49.5A167.89,167.89,0,0,1,284,115m0-6A175,175,0,1,0,459,284,175,175,0,0,0,284,109Z"></path><g class="cls-3"><polygon class="cls-4" points="127.25 287.13 124.26 278.17 121.26 287.13 112.26 287.37 119.4 293.15 116.84 302.26 124.26 296.87 131.67 302.26 129.11 293.15 136.26 287.37 127.25 287.13"></polygon><polygon class="cls-4" points="149.85 260.76 146.85 251.8 143.85 260.76 134.84 261 142 266.78 139.43 275.89 146.85 270.5 154.26 275.89 151.7 266.78 158.85 261 149.85 260.76"></polygon><polygon class="cls-4" points="172.44 287.13 169.44 278.17 166.44 287.13 157.44 287.37 164.58 293.15 162.02 302.26 169.44 296.87 176.85 302.26 174.29 293.15 181.44 287.37 172.44 287.13"></polygon><polygon class="cls-4" points="103.37 260.76 100.37 251.8 97.37 260.76 88.37 261 95.52 266.78 92.96 275.89 100.37 270.5 107.78 275.89 105.22 266.78 112.37 261 103.37 260.76"></polygon><polygon class="cls-4" points="196.32 260.76 193.32 251.8 190.32 260.76 181.32 261 188.47 266.78 185.91 275.89 193.32 270.5 200.74 275.89 198.18 266.78 205.32 261 196.32 260.76"></polygon><polygon class="cls-4" points="172.44 234.39 169.44 225.43 166.44 234.39 157.44 234.63 164.58 240.41 162.02 249.52 169.44 244.14 176.85 249.52 174.29 240.41 181.44 234.63 172.44 234.39"></polygon><polygon class="cls-4" points="196.32 208.02 193.32 199.06 190.32 208.02 181.32 208.26 188.47 214.04 185.91 223.15 193.32 217.76 200.74 223.15 198.18 214.04 205.32 208.26 196.32 208.02"></polygon><polygon class="cls-4" points="82.08 287.13 79.08 278.17 76.08 287.13 67.08 287.37 74.22 293.15 71.66 302.26 79.08 296.87 86.49 302.26 83.93 293.15 91.08 287.37 82.08 287.13"></polygon><polygon class="cls-4" points="217.62 287.13 214.62 278.17 211.62 287.13 202.62 287.37 209.76 293.15 207.2 302.26 214.62 296.87 222.03 302.26 219.47 293.15 226.62 287.37 217.62 287.13"></polygon><polygon class="cls-4" points="196.32 155.28 193.32 146.32 190.32 155.28 181.32 155.52 188.47 161.3 185.91 170.41 193.32 165.02 200.74 170.41 198.18 161.3 205.32 155.52 196.32 155.28"></polygon><rect class="cls-2" x="11.18" y="370.83" width="556.69" height="26.41"></rect><polygon class="cls-4" points="262.8 287.13 259.8 278.17 256.8 287.13 247.8 287.37 254.95 293.15 252.39 302.26 259.8 296.87 267.21 302.26 264.65 293.15 271.8 287.37 262.8 287.13"></polygon><polygon class="cls-4" points="149.85 208.02 146.85 199.06 143.85 208.02 134.84 208.26 142 214.04 139.43 223.15 146.85 217.76 154.26 223.15 151.7 214.04 158.85 208.26 149.85 208.02"></polygon><rect class="cls-2" x="11.18" y="428.05" width="556.69" height="26.41"></rect><polygon class="cls-4" points="567.87 168.36 567.87 141.96 305.95 141.96 305.95 112 280.56 112 280.56 313.61 11.18 313.61 11.18 340.02 567.87 340.02 567.87 313.61 305.95 313.61 305.95 282.8 567.87 282.8 567.87 256.39 305.95 256.39 305.95 225.58 567.87 225.58 567.87 199.17 305.95 199.17 305.95 168.36 567.87 168.36"></polygon><polygon class="cls-4" points="242.8 260.76 239.8 251.8 236.8 260.76 227.8 261 234.95 266.78 232.39 275.89 239.8 270.5 247.21 275.89 244.65 266.78 251.8 261 242.8 260.76"></polygon><polygon class="cls-4" points="234.95 214.04 232.39 223.15 239.8 217.76 247.21 223.15 244.65 214.04 251.8 208.26 242.8 208.02 239.8 199.06 236.8 208.02 227.8 208.26 234.95 214.04"></polygon><polygon class="cls-4" points="262.8 234.39 259.8 225.43 256.8 234.39 247.8 234.63 254.95 240.41 252.39 249.52 259.8 244.14 267.21 249.52 264.65 240.41 271.8 234.63 262.8 234.39"></polygon><polygon class="cls-4" points="262.8 181.64 259.8 172.69 256.8 181.64 247.8 181.89 254.95 187.67 252.39 196.78 259.8 191.39 267.21 196.78 264.65 187.67 271.8 181.89 262.8 181.64"></polygon><polygon class="cls-4" points="242.8 155.28 239.8 146.32 236.8 155.28 227.8 155.52 234.95 161.3 232.39 170.41 239.8 165.02 247.21 170.41 244.65 161.3 251.8 155.52 242.8 155.28"></polygon><polygon class="cls-4" points="262.8 128.91 259.8 119.95 256.8 128.91 247.8 129.15 254.95 134.93 252.39 144.04 259.8 138.65 267.21 144.04 264.65 134.93 271.8 129.15 262.8 128.91"></polygon><polygon class="cls-4" points="29.04 187.67 26.48 196.78 33.89 191.39 41.3 196.78 38.74 187.67 45.89 181.89 36.89 181.64 33.89 172.69 30.89 181.64 21.89 181.89 29.04 187.67"></polygon><polygon class="cls-4" points="217.62 128.91 214.62 119.95 211.62 128.91 202.62 129.15 209.76 134.93 207.2 144.04 214.62 138.65 222.03 144.04 219.47 134.93 226.62 129.15 217.62 128.91"></polygon><polygon class="cls-4" points="56.89 260.76 53.89 251.8 50.89 260.76 41.89 261 49.04 266.78 46.48 275.89 53.89 270.5 61.31 275.89 58.75 266.78 65.89 261 56.89 260.76"></polygon><polygon class="cls-4" points="36.89 287.13 33.89 278.17 30.89 287.13 21.89 287.37 29.04 293.15 26.48 302.26 33.89 296.87 41.3 302.26 38.74 293.15 45.89 287.37 36.89 287.13"></polygon><polygon class="cls-4" points="217.62 234.39 214.62 225.43 211.62 234.39 202.62 234.63 209.76 240.41 207.2 249.52 214.62 244.14 222.03 249.52 219.47 240.41 226.62 234.63 217.62 234.39"></polygon><polygon class="cls-4" points="127.25 234.39 124.26 225.43 121.26 234.39 112.26 234.63 119.4 240.41 116.84 249.52 124.26 244.14 131.67 249.52 129.11 240.41 136.26 234.63 127.25 234.39"></polygon><polygon class="cls-4" points="29.04 240.41 26.48 249.52 33.89 244.14 41.3 249.52 38.74 240.41 45.89 234.63 36.89 234.39 33.89 225.43 30.89 234.39 21.89 234.63 29.04 240.41"></polygon><polygon class="cls-4" points="56.89 208.02 53.89 199.06 50.89 208.02 41.89 208.26 49.04 214.04 46.48 223.15 53.89 217.76 61.31 223.15 58.75 214.04 65.89 208.26 56.89 208.02"></polygon><polygon class="cls-4" points="56.89 155.28 53.89 146.32 50.89 155.28 41.89 155.52 49.04 161.3 46.48 170.41 53.89 165.02 61.31 170.41 58.75 161.3 65.89 155.52 56.89 155.28"></polygon><polygon class="cls-4" points="36.89 128.91 33.89 119.95 30.89 128.91 21.89 129.15 29.04 134.93 26.48 144.04 33.89 138.65 41.3 144.04 38.74 134.93 45.89 129.15 36.89 128.91"></polygon><polygon class="cls-4" points="74.22 240.41 71.66 249.52 79.08 244.14 86.49 249.52 83.93 240.41 91.08 234.63 82.08 234.39 79.08 225.43 76.08 234.39 67.08 234.63 74.22 240.41"></polygon><polygon class="cls-4" points="217.62 181.64 214.62 172.69 211.62 181.64 202.62 181.89 209.76 187.67 207.2 196.78 214.62 191.39 222.03 196.78 219.47 187.67 226.62 181.89 217.62 181.64"></polygon><polygon class="cls-4" points="127.25 181.64 124.26 172.69 121.26 181.64 112.26 181.89 119.4 187.67 116.84 196.78 124.26 191.39 131.67 196.78 129.11 187.67 136.26 181.89 127.25 181.64"></polygon><polygon class="cls-4" points="172.44 181.64 169.44 172.69 166.44 181.64 157.44 181.89 164.58 187.67 162.02 196.78 169.44 191.39 176.85 196.78 174.29 187.67 181.44 181.89 172.44 181.64"></polygon><polygon class="cls-4" points="103.37 208.02 100.37 199.06 97.37 208.02 88.37 208.26 95.52 214.04 92.96 223.15 100.37 217.76 107.78 223.15 105.22 214.04 112.37 208.26 103.37 208.02"></polygon><polygon class="cls-4" points="169.44 119.95 166.44 128.91 157.44 129.15 164.58 134.93 162.02 144.04 169.44 138.65 176.85 144.04 174.29 134.93 181.44 129.15 172.44 128.91 169.44 119.95"></polygon><polygon class="cls-4" points="74.22 187.67 71.66 196.78 79.08 191.39 86.49 196.78 83.93 187.67 91.08 181.89 82.08 181.64 79.08 172.69 76.08 181.64 67.08 181.89 74.22 187.67"></polygon><polygon class="cls-4" points="100.37 146.32 97.37 155.28 88.37 155.52 95.52 161.3 92.96 170.41 100.37 165.02 107.78 170.41 105.22 161.3 112.37 155.52 103.37 155.28 100.37 146.32"></polygon><polygon class="cls-4" points="79.08 119.95 76.08 128.91 67.08 129.15 74.22 134.93 71.66 144.04 79.08 138.65 86.49 144.04 83.93 134.93 91.08 129.15 82.08 128.91 79.08 119.95"></polygon><polygon class="cls-4" points="146.85 146.32 143.85 155.28 134.84 155.52 142 161.3 139.43 170.41 146.85 165.02 154.26 170.41 151.7 161.3 158.85 155.52 149.85 155.28 146.85 146.32"></polygon><polygon class="cls-4" points="124.26 119.95 121.26 128.91 112.26 129.15 119.4 134.93 116.84 144.04 124.26 138.65 131.67 144.04 129.11 134.93 136.26 129.15 127.25 128.91 124.26 119.95"></polygon></g></svg> 