<?xml version="1.0" encoding="utf-8"?>
<!-- Generator: Adobe Illustrator 18.0.0, SVG Export Plug-In . SVG Version: 6.00 Build 0)  -->
<!DOCTYPE svg PUBLIC "-//W3C//DTD SVG 1.1//EN" "http://www.w3.org/Graphics/SVG/1.1/DTD/svg11.dtd">
<svg version="1.1" id="Layer_1" xmlns="http://www.w3.org/2000/svg" xmlns:xlink="http://www.w3.org/1999/xlink" x="0px" y="0px"
	 viewBox="0 0 38 38" enable-background="new 0 0 38 38" xml:space="preserve">
<g>
	<path fill="#354256" d="M22.5,31.5h-17v-22c0-2.2,1.8-4,4-4h9c2.2,0,4,1.8,4,4V31.5z M7.5,29.5h13v-20c0-1.1-0.9-2-2-2h-9
		c-1.1,0-2,0.9-2,2V29.5z"/>
</g>
<g>
	<path fill="#354256" d="M25,33.3H3v-2c0-0.6,0.4-1,1-1h20c0.6,0,1,0.4,1,1V33.3z"/>
</g>
<g>
	<path fill="#354256" d="M17.5,15.6h-7c-0.6,0-1-0.4-1-1v-4c0-0.6,0.4-1,1-1h7c0.6,0,1,0.4,1,1v4C18.5,15.1,18.1,15.6,17.5,15.6z"/>
</g>
<g>
	<path fill="#354256" d="M27.5,28c-1.9,0-3.5-1.6-3.5-3.5v-3c0-0.8-0.7-1.5-1.5-1.5H22v-2h0.5c1.9,0,3.5,1.6,3.5,3.5v3
		c0,0.8,0.7,1.5,1.5,1.5s1.5-0.7,1.5-1.5V13.6h2v10.9C31,26.4,29.4,28,27.5,28z"/>
</g>
<g>
	<path fill="#354256" d="M30.9,14.6H29c-2.2,0-4-1.8-4-4V8c0-0.6,0.4-1,1-1h7.9c0.6,0,1,0.4,1,1v2.6C34.9,12.8,33.1,14.6,30.9,14.6z
		 M27,9v1.6c0,1.1,0.9,2,2,2h1.9c1.1,0,2-0.9,2-2V9H27z"/>
</g>
<g>
	<path fill="#354256" d="M28,9c-0.6,0-1-0.4-1-1V5c0-0.6,0.4-1,1-1s1,0.4,1,1v3C29,8.6,28.6,9,28,9z"/>
</g>
<g>
	<path fill="#354256" d="M32,9c-0.6,0-1-0.4-1-1V5c0-0.6,0.4-1,1-1s1,0.4,1,1v3C33,8.6,32.6,9,32,9z"/>
</g>
<g>
	<g>
		<polygon fill="#354256" points="12.1,28.1 13.5,24 10.2,24 15.1,18.5 14.7,22 18.5,22 		"/>
	</g>
</g>
</svg>
